<?xml version="1.0" standalone="no"?>
<!DOCTYPE svg PUBLIC "-//W3C//DTD SVG 20010904//EN"
 "http://www.w3.org/TR/2001/REC-SVG-20010904/DTD/svg10.dtd">
<svg version="1.0" xmlns="http://www.w3.org/2000/svg"
 width="1024.000000pt" height="1024.000000pt" viewBox="0 0 1024.000000 1024.000000"
 preserveAspectRatio="xMidYMid meet">
<metadata>
Created by potrace 1.14, written by Peter Selinger 2001-2017
</metadata>
<g transform="translate(0.000000,1024.000000) scale(0.100000,-0.100000)"
fill="#000000" stroke="none">
<path d="M6598 9364 c-2 -1 -48 -5 -103 -9 -55 -3 -111 -8 -125 -10 -14 -2
-47 -6 -75 -10 -109 -13 -193 -26 -370 -60 -16 -3 -88 -22 -160 -42 -136 -38
-220 -71 -267 -105 -24 -16 -27 -23 -16 -35 8 -11 23 -13 52 -9 23 3 75 8 116
12 41 3 84 8 95 10 33 6 342 18 470 17 289 -1 645 -32 830 -72 22 -5 63 -14
92 -20 507 -104 1128 -362 1578 -657 l25 -16 0 274 0 273 -124 63 c-166 83
-359 160 -538 216 -80 25 -157 47 -170 50 -41 9 -62 14 -103 24 -114 30 -392
76 -530 88 -44 4 -93 8 -110 11 -35 4 -563 11 -567 7z"/>
<path d="M4662 9269 c-252 -67 -416 -225 -477 -459 -53 -203 15 -447 133 -480
47 -13 94 -13 124 0 13 5 211 81 441 169 229 88 428 168 441 178 41 30 69 89
67 145 -1 84 -71 212 -165 302 -144 139 -370 197 -564 145z"/>
<path d="M6167 8424 c-1 -1 -54 -5 -118 -8 -64 -4 -127 -9 -140 -11 -13 -3
-51 -8 -84 -11 -33 -3 -121 -17 -195 -30 -114 -21 -180 -35 -325 -70 -35 -9
-38 -10 -130 -38 -49 -16 -94 -29 -100 -31 -5 -1 -17 -5 -25 -8 -8 -3 -67 -24
-130 -48 -398 -147 -813 -390 -1155 -677 -110 -93 -363 -341 -427 -420 -26
-31 -57 -68 -70 -82 -13 -14 -37 -43 -53 -65 -17 -22 -32 -42 -35 -45 -12 -12
-92 -122 -142 -195 -226 -335 -408 -723 -519 -1110 -22 -77 -43 -151 -45 -165
-3 -14 -9 -41 -14 -61 -15 -53 -57 -285 -65 -354 -4 -33 -9 -71 -11 -85 -26
-195 -26 -724 0 -890 2 -14 7 -50 11 -80 4 -30 8 -62 10 -70 2 -8 6 -35 10
-60 10 -70 14 -90 30 -165 9 -38 18 -81 21 -93 33 -156 129 -446 211 -637 115
-268 313 -615 451 -791 12 -16 43 -56 68 -89 96 -125 185 -225 324 -365 141
-141 194 -188 400 -353 8 -7 44 -33 80 -57 36 -25 67 -48 70 -51 7 -7 96 -65
200 -129 300 -184 731 -364 1065 -444 61 -15 126 -31 145 -36 47 -12 321 -58
390 -65 170 -17 237 -20 455 -20 211 0 366 7 430 19 11 2 46 7 79 11 64 7 66
8 186 29 380 68 702 175 1065 356 195 97 404 223 558 338 l97 72 0 3129 0
3130 -32 22 c-18 13 -35 26 -38 29 -38 41 -489 320 -518 320 -5 0 -12 3 -14 8
-4 10 -198 100 -333 155 -240 98 -560 191 -800 231 -78 13 -173 28 -205 31
-19 2 -53 6 -75 9 -106 13 -548 29 -558 20z"/>
<path d="M8278 165 c-2 -2 -30 -5 -63 -9 -32 -3 -128 -22 -212 -42 -84 -19
-162 -37 -174 -39 -63 -12 -149 -51 -149 -67 0 -4 182 -8 404 -8 388 0 405 1
411 19 8 27 -3 83 -22 103 -21 24 -77 41 -140 43 -29 1 -54 1 -55 0z"/>
</g>
</svg>
